name Walk6.mot
datacolumns 19
datarows 10
range 2.14000000 2.14900000
endheader

                time	   L_ground_force_vx	   L_ground_force_vy	   L_ground_force_vz	   L_ground_force_px	   L_ground_force_py	   L_ground_force_pz	   R_ground_force_vx	   R_ground_force_vy	   R_ground_force_vz	   R_ground_force_px	   R_ground_force_py	   R_ground_force_pz	   L_ground_torque_x	   L_ground_torque_y	   L_ground_torque_z	   R_ground_torque_x	   R_ground_torque_y	   R_ground_torque_z	
          2.14000000	        -12.72461635	        839.51178829	        -34.93704871	          0.48020291	          0.00000000	          0.12921642	          0.00000000	          0.00000000	          0.00000000	          0.00000000	          0.00000000	          0.00000000	          0.00000000	         -0.50597624	          0.00000000	          0.00000000	          0.00000000	          0.00000000	
          2.14100000	        -12.19496590	        837.64456269	        -34.71183194	          0.48029827	          0.00000000	          0.12927731	          0.00000000	          0.00000000	          0.00000000	          0.00000000	          0.00000000	          0.00000000	          0.00000000	         -0.59818687	          0.00000000	          0.00000000	          0.00000000	          0.00000000	
          2.14200000	        -11.64655100	        835.82600995	        -34.49168407	          0.48040388	          0.00000000	          0.12936137	          0.00000000	          0.00000000	          0.00000000	          0.00000000	          0.00000000	          0.00000000	          0.00000000	         -0.68895159	          0.00000000	          0.00000000	          0.00000000	          0.00000000	
          2.14300000	        -11.08136401	        834.06311301	        -34.27410814	          0.48055424	          0.00000000	          0.12947066	          0.00000000	          0.00000000	          0.00000000	          0.00000000	          0.00000000	          0.00000000	          0.00000000	         -0.77386612	          0.00000000	          0.00000000	          0.00000000	          0.00000000	
          2.14400000	        -10.51077253	        832.32394246	        -34.06135686	          0.48076515	          0.00000000	          0.12958552	          0.00000000	          0.00000000	          0.00000000	          0.00000000	          0.00000000	          0.00000000	          0.00000000	         -0.85142738	          0.00000000	          0.00000000	          0.00000000	          0.00000000	
          2.14500000	         -9.94907433	        830.57077057	        -33.85747228	          0.48101705	          0.00000000	          0.12968391	          0.00000000	          0.00000000	          0.00000000	          0.00000000	          0.00000000	          0.00000000	          0.00000000	         -0.92422424	          0.00000000	          0.00000000	          0.00000000	          0.00000000	
          2.14600000	         -9.41094654	        828.80606766	        -33.66157439	          0.48127076	          0.00000000	          0.12976262	          0.00000000	          0.00000000	          0.00000000	          0.00000000	          0.00000000	          0.00000000	          0.00000000	         -0.99701716	          0.00000000	          0.00000000	          0.00000000	          0.00000000	
          2.14700000	         -8.90592176	        827.03376221	        -33.46733273	          0.48149376	          0.00000000	          0.12982925	          0.00000000	          0.00000000	          0.00000000	          0.00000000	          0.00000000	          0.00000000	          0.00000000	         -1.07321716	          0.00000000	          0.00000000	          0.00000000	          0.00000000	
          2.14800000	         -8.43464547	        825.21194960	        -33.27065087	          0.48166616	          0.00000000	          0.12988198	          0.00000000	          0.00000000	          0.00000000	          0.00000000	          0.00000000	          0.00000000	          0.00000000	         -1.15226431	          0.00000000	          0.00000000	          0.00000000	          0.00000000	
          2.14900000	         -7.98921987	        823.29290196	        -33.07777603	          0.48178772	          0.00000000	          0.12991356	          0.00000000	          0.00000000	          0.00000000	          0.00000000	          0.00000000	          0.00000000	          0.00000000	         -1.23171751	          0.00000000	          0.00000000	          0.00000000	          0.00000000	
